<?xml version="1.0" encoding="UTF-8" standalone="no"?>
<svg
   xmlns:dc="http://purl.org/dc/elements/1.1/"
   xmlns:cc="http://creativecommons.org/ns#"
   xmlns:rdf="http://www.w3.org/1999/02/22-rdf-syntax-ns#"
   xmlns:svg="http://www.w3.org/2000/svg"
   xmlns="http://www.w3.org/2000/svg"
   xmlns:sodipodi="http://sodipodi.sourceforge.net/DTD/sodipodi-0.dtd"
   xmlns:inkscape="http://www.inkscape.org/namespaces/inkscape"
   sodipodi:docname="manila-ganesha.svg"
   inkscape:version="1.0 (6e3e5246a0, 2020-05-07)"
   id="svg156"
   version="1.1"
   viewBox="0 0 25.399999 25.400001"
   height="96"
   width="96">
  <defs
     id="defs150" />
  <sodipodi:namedview
     inkscape:window-maximized="0"
     inkscape:window-y="23"
     inkscape:window-x="26"
     inkscape:window-height="1043"
     inkscape:window-width="1637"
     units="px"
     showgrid="false"
     inkscape:document-rotation="0"
     inkscape:current-layer="layer1"
     inkscape:document-units="mm"
     inkscape:cy="64.349828"
     inkscape:cx="56.141094"
     inkscape:zoom="3.959798"
     inkscape:pageshadow="2"
     inkscape:pageopacity="0.0"
     borderopacity="1.0"
     bordercolor="#666666"
     pagecolor="#ffffff"
     id="base" />
  <metadata
     id="metadata153">
    <rdf:RDF>
      <cc:Work
         rdf:about="">
        <dc:format>image/svg+xml</dc:format>
        <dc:type
           rdf:resource="http://purl.org/dc/dcmitype/StillImage" />
        <dc:title></dc:title>
      </cc:Work>
    </rdf:RDF>
  </metadata>
  <g
     id="layer1"
     inkscape:groupmode="layer"
     inkscape:label="Layer 1">
    <g
       transform="matrix(0.0101426,0,0,-0.0101426,0.2735629,26.942952)"
       id="g186">
      <path
         id="path188"
         style="fill:#9d3e1d;fill-opacity:1;fill-rule:nonzero;stroke:none"
         d="m 51.3086,78.7891 c 0,8.2617 -3.0195,12.7109 -8.5781,12.7109 -14.1367,0 -23.5078,-26.3711 -23.5078,-39.2383 0,-9.3633 3.3359,-14.1328 9.2148,-14.1328 12.8672,0 22.8711,27.793 22.8711,40.6602 z M 63.5391,51.4688 c -1.2696,-4.129 -1.7461,-6.9883 -1.7461,-9.0469 0,-2.711 1.2695,-4.1328 3.6523,-4.1328 3.4961,0 6.9922,5.4023 10.6445,16.0429 l 7.6211,-2.3828 C 77.5195,32.5586 68.9414,25.4219 59.2539,25.4219 c -7.4687,0 -13.0273,4.7578 -13.0273,13.9765 0,1.1133 0,1.9024 0.1601,3.5 l -1.1133,0.461 C 39.2383,31.4492 30.1797,25.4219 21.1289,25.4219 7.46484,25.4219 0,36.6914 0,50.6797 0,66.8789 6.51172,81.3281 15.0938,89.75 c 7.4648,7.6289 15.8828,12.07 24.7773,12.07 8.8984,0 13.9766,-6.1911 15.4062,-13.3395 L 58.457,100.711 H 76.5625 L 63.5391,51.4688" />
      <path
         id="path190"
         style="fill:#9d3e1d;fill-opacity:1;fill-rule:nonzero;stroke:none"
         d="m 163.289,38.2891 c 3.336,0 6.676,5.0703 10.965,16.0429 l 7.465,-2.3828 c -6.352,-19.2187 -15.25,-26.5273 -24.301,-26.5273 -8.578,0 -14.141,5.5586 -14.141,14.7695 0,15.8906 10.485,31.6094 10.485,42.4102 0,3.6484 -1.59,5.25 -4.289,5.25 -7.305,0 -20.965,-12.0703 -33.676,-60.8399 H 96.7383 l 13.6567,51.4571 c 2.382,9.0507 1.91,11.5898 -0.954,11.5898 -3.652,0 -7.781,-6.8203 -12.3863,-16.668 l -7.4649,3.1797 c 6.8321,15.8789 14.7692,25.1017 25.4142,25.1017 6.832,0 11.598,-4.9337 11.598,-14.7814 0,-4.6093 -0.957,-10.3203 -3.34,-17.6289 l 1.113,-0.4804 c 10.484,22.3984 22.234,33.0387 33.516,33.0387 8.894,0 14.457,-6.988 14.457,-16.5192 0,-13.5 -11.758,-33.832 -11.758,-43.5195 0,-2.3829 0.953,-3.4922 2.699,-3.4922" />
      <path
         id="path192"
         style="fill:#9d3e1d;fill-opacity:1;fill-rule:nonzero;stroke:none"
         d="m 242.551,63.3789 c 0,-18.418 9.051,-27.3203 23.98,-27.3203 25.895,0 36.379,38.6016 36.379,59.0898 0,18.4336 -9.215,27.3316 -23.984,27.3316 -26.051,0 -36.375,-38.6089 -36.375,-59.1011 z m 37.168,70.6911 c 26.051,0 44.32,-18.59 44.32,-45.9098 0,-30.6602 -23.031,-63.6914 -58.297,-63.6914 -26.051,0 -44.476,18.582 -44.476,45.9101 0,30.6521 23.031,63.6911 58.453,63.6911" />
      <path
         id="path194"
         style="fill:#9d3e1d;fill-opacity:1;fill-rule:nonzero;stroke:none"
         d="m 361.52,49.8789 c 0,-7.7891 3.335,-13.1875 10.32,-13.1875 14.137,0 22.082,26.6875 22.082,39.2383 0,8.9023 -2.863,13.5 -8.734,13.5 -12.711,0 -23.668,-25.5703 -23.668,-39.5508 z m -12.868,38.7617 c -3.656,0 -6.511,-4.6093 -11.597,-15.25 l -7.465,3.1797 c 7.621,17.4688 15.09,25.1017 25.098,25.1017 7.148,0 11.914,-5.2501 11.914,-14.3009 0,-1.1211 -0.161,-2.5391 -0.325,-3.9805 l 1.278,-0.4687 c 6.035,12.539 15.722,18.8981 24.461,18.8981 13.339,0 20.968,-10.9606 20.968,-25.7302 0,-25.5781 -17.632,-49.2382 -37.171,-49.2382 -8.418,0 -15.09,4.289 -18.11,10.6484 l -6.351,-23.6797 h 14.925 L 363.105,2.07031 h -44 l 3.176,11.74999 h 10.801 l 16.84,62.8985 c 2.383,8.9023 1.586,11.9218 -1.27,11.9218" />
      <path
         id="path196"
         style="fill:#9d3e1d;fill-opacity:1;fill-rule:nonzero;stroke:none"
         d="m 442.52,64.332 c 22.082,2.3789 30.179,10.9688 30.179,20.8086 0,4.4492 -2.539,7.9414 -7.304,7.9414 -11.118,0 -19.536,-15.0937 -22.875,-28.75 z m -1.426,-7.4609 c -0.16,-1.2695 -0.16,-2.5391 -0.16,-3.6523 0,-13.1875 6.832,-17.3204 14.769,-17.3204 7.789,0 15.57,5.25 22.242,14.6133 l 6.668,-4.7617 c -8.097,-11.5898 -17.949,-20.3281 -34.785,-20.3281 -16.359,0 -27.797,11.4297 -27.797,28.9101 0,24.4571 21.129,47.488 46.067,47.488 13.66,0 21.281,-6.82 21.281,-16.5192 0,-14.2891 -14.93,-26.5313 -48.285,-28.4297" />
      <path
         id="path198"
         style="fill:#9d3e1d;fill-opacity:1;fill-rule:nonzero;stroke:none"
         d="m 571.184,38.2891 c 3.332,0 6.671,5.0703 10.961,16.0429 l 7.464,-2.3828 c -6.351,-19.2187 -15.25,-26.5273 -24.3,-26.5273 -8.579,0 -14.141,5.5586 -14.141,14.7695 0,15.8906 10.48,31.6094 10.48,42.4102 0,3.6484 -1.585,5.25 -4.285,5.25 -7.304,0 -20.968,-12.0703 -33.675,-60.8399 h -19.059 l 13.656,51.4571 c 2.383,9.0507 1.91,11.5898 -0.949,11.5898 -3.652,0 -7.785,-6.8203 -12.391,-16.668 l -7.465,3.1797 c 6.833,15.8789 14.77,25.1017 25.415,25.1017 6.832,0 11.597,-4.9337 11.597,-14.7814 0,-4.6093 -0.957,-10.3203 -3.34,-17.6289 l 1.114,-0.4804 c 10.484,22.3984 22.238,33.0387 33.515,33.0387 8.899,0 14.457,-6.988 14.457,-16.5192 0,-13.5 -11.758,-33.832 -11.758,-43.5195 0,-2.3829 0.954,-3.4922 2.704,-3.4922" />
      <path
         id="path200"
         style="fill:#9d3e1d;fill-opacity:1;fill-rule:nonzero;stroke:none"
         d="m 606.121,64.1719 h 11.281 C 620.422,45.1094 631.539,35.75 645.52,35.75 c 12.546,0 19.851,7.9414 19.851,16.1992 0,9.211 -10.484,13.4922 -21.762,18.7422 -13.183,5.8789 -27.636,12.8672 -27.636,29.7066 0,17.782 16.043,33.672 37.168,33.672 11.277,0 21.761,-4.609 27.004,-12.07 l 6.511,11.59 h 11.914 l -9.371,-37.6486 h -11.117 c -3.336,19.6996 -11.281,26.9996 -24.941,26.9996 -10.325,0 -17.633,-7.461 -17.633,-15.722 0,-10.0081 10.801,-14.2971 22.242,-19.3674 13.02,-5.5703 27,-12.2422 27,-28.9219 0,-19.5313 -17.312,-34.4609 -39.074,-34.4609 -13.821,0 -24.145,5.082 -30.184,12.7031 l -6.984,-12.2227 h -11.914 l 9.527,39.2227" />
      <path
         id="path202"
         style="fill:#9d3e1d;fill-opacity:1;fill-rule:nonzero;stroke:none"
         d="m 736.848,88.7891 -9.535,-34.7774 c -1.106,-3.9726 -1.903,-7.6328 -1.903,-9.5312 0,-4.2891 2.223,-5.7188 5.563,-5.7188 5.715,0 10.48,6.9883 14.925,17.1485 l 7.625,-2.5391 c -7.781,-22.5508 -20.011,-27.9492 -28.589,-27.9492 -10.485,0 -17.954,5.2383 -17.954,16.039 0,4.6094 1.75,11.2774 2.864,15.7188 l 8.578,31.6094 h -13.981 l 2.539,9.6992 h 13.981 l 5.246,19.0507 18.898,2.07 -5.714,-21.1207 h 22.55 l -2.539,-9.6992 h -22.554" />
      <path
         id="path204"
         style="fill:#9d3e1d;fill-opacity:1;fill-rule:nonzero;stroke:none"
         d="m 817.219,78.7891 c 0,8.2617 -3.02,12.7109 -8.582,12.7109 -14.133,0 -23.504,-26.3711 -23.504,-39.2383 0,-9.3633 3.336,-14.1328 9.215,-14.1328 12.863,0 22.871,27.793 22.871,40.6602 z m 12.23,-27.3203 c -1.269,-4.129 -1.75,-6.9883 -1.75,-9.0469 0,-2.711 1.27,-4.1328 3.653,-4.1328 3.496,0 6.992,5.4023 10.644,16.0429 l 7.621,-2.3828 C 843.43,32.5586 834.848,25.4219 825.16,25.4219 c -7.465,0 -13.027,4.7578 -13.027,13.9765 0,1.1133 0,1.9024 0.164,3.5 l -1.113,0.461 C 805.145,31.4492 796.09,25.4219 787.035,25.4219 c -13.66,0 -21.129,11.2695 -21.129,25.2578 0,16.1992 6.516,30.6484 15.094,39.0703 7.469,7.6289 15.887,12.07 24.781,12.07 8.899,0 13.977,-6.1911 15.407,-13.3395 l 3.175,12.2305 h 18.11 L 829.449,51.4688" />
      <path
         id="path206"
         style="fill:#9d3e1d;fill-opacity:1;fill-rule:nonzero;stroke:none"
         d="m 922.367,83.082 c 0,-6.832 -4.285,-13.6601 -11.117,-13.6601 -5.719,0 -9.371,3.8086 -9.371,8.5664 0,4.4609 2.699,8.1133 6.512,10.8008 -1.274,2.2304 -3.973,3.9804 -8.739,3.9804 -15.882,0 -25.254,-24.3086 -25.254,-38.1289 0,-13.6601 7.305,-17.9492 14.454,-17.9492 7.304,0 14.296,5.25 20.652,15.0899 l 6.828,-4.6016 c -6.828,-11.9102 -16.199,-21.7578 -31.766,-21.7578 -17.476,0 -29.23,11.9101 -29.23,29.2187 0,24.7891 21.285,47.1794 44,47.1794 13.344,0 23.031,-7.4606 23.031,-18.738" />
      <path
         id="path208"
         style="fill:#9d3e1d;fill-opacity:1;fill-rule:nonzero;stroke:none"
         d="m 989.719,38.2891 c 3.496,0 6.511,5.0703 10.641,16.0429 l 7.47,-2.3828 c -6.04,-19.2187 -14.299,-26.5273 -23.514,-26.5273 -8.894,0 -14.769,5.8672 -14.769,16.1992 0,4.4492 1.746,10.8008 1.746,14.2891 0,5.8789 -2.543,7.3203 -14.141,7.3203 h -0.316 l -9.688,-36.2188 h -17.949 l 25.735,97.0473 h -13.188 l 3.176,12.39 h 31.609 L 958.746,70.3789 h 0.789 c 8.418,0 11.914,4.75 18.906,16.3516 5.243,8.5781 10.485,15.0895 19.856,15.0895 7.623,0 11.753,-4.7614 11.753,-11.5895 0,-6.6719 -4.29,-13.3516 -10.804,-13.3516 -6.351,0 -9.683,5.5703 -7.465,12.082 -2.218,-0.4804 -4.601,-3.1796 -8.258,-9.2226 -3.175,-5.8789 -5.718,-9.207 -10.488,-11.75 11.281,-0.9492 14.934,-5.8789 14.934,-13.3477 0,-4.6015 -1.27,-9.2109 -1.27,-12.0703 0,-3.1719 1.27,-4.2812 3.02,-4.2812" />
      <path
         id="path210"
         style="fill:#9d3e1d;fill-opacity:1;fill-rule:nonzero;stroke:none"
         d="m 1076.6,68.7813 c 0,31.9297 23.51,65.2887 58.45,65.2887 13.19,0 23.03,-4.769 28.44,-12.859 l 6.51,12.379 h 12.23 l -10.17,-41.3009 h -11.91 c -1.59,22.8709 -11.6,30.1909 -24.46,30.1909 -28.12,0 -37.81,-37.8198 -37.81,-55.2886 0,-21.1211 10.8,-30.0195 24.62,-30.0195 16.84,0 26.69,12.707 34.63,31.457 l 11.28,-3.9805 c -7.95,-22.2265 -22.72,-40.1796 -48.13,-40.1796 -29.23,0 -43.68,18.582 -43.68,44.3125" />
      <path
         id="path212"
         style="fill:#9d3e1d;fill-opacity:1;fill-rule:nonzero;stroke:none"
         d="m 1220.83,93.082 c -14.78,0 -23.2,-28.9101 -23.2,-44.3203 0,-10.1601 4.29,-14.4531 11.12,-14.4531 14.78,0 23.19,28.9219 23.19,44.3203 0,10.1602 -4.28,14.4531 -11.11,14.4531 z m 30.01,-21.9101 c 0,-24.793 -19.85,-45.75 -41.93,-45.75 -18.27,0 -30.18,12.8672 -30.18,30.8164 0,24.7734 19.85,45.5817 41.93,45.5817 18.27,0 30.18,-12.6989 30.18,-30.6481" />
      <path
         id="path214"
         style="fill:#9d3e1d;fill-opacity:1;fill-rule:nonzero;stroke:none"
         d="m 1354.09,40.1914 c 0,15.8906 10.48,31.6094 10.48,42.4102 0,3.6484 -1.59,5.25 -4.29,5.25 -6.98,0 -20.8,-12.0703 -33.51,-60.8399 h -18.75 l 11.13,41.9297 c 1.42,5.2383 2.22,9.0469 2.22,12.0703 0,3.8203 -1.27,6.8399 -4.77,6.8399 -7.3,0 -20.97,-12.0703 -33.68,-60.8399 h -19.05 l 13.65,51.4571 c 2.39,9.0507 1.91,11.5898 -0.95,11.5898 -3.65,0 -7.78,-6.8203 -12.39,-16.668 l -7.46,3.1797 c 6.83,15.8789 14.77,25.1017 25.41,25.1017 6.83,0 11.6,-4.9337 11.6,-14.7814 0,-4.6093 -0.96,-10.3203 -3.34,-17.6289 l 1.11,-0.4804 c 10.49,22.3984 22.24,33.0387 33.05,33.0387 8.73,0 13.34,-5.8786 13.34,-15.4098 0,-4.4414 -1.27,-9.8399 -3.66,-17.1485 l 1.12,-0.4804 c 10.48,22.3984 22.23,33.0387 33.51,33.0387 8.74,0 14.3,-6.988 14.3,-16.5192 0,-13.5 -11.76,-33.832 -11.76,-43.5195 0,-2.3829 0.96,-3.4922 2.7,-3.4922 3.34,0 6.68,5.0703 10.96,16.0429 l 7.47,-2.3828 c -6.35,-19.2187 -15.25,-26.5273 -24.3,-26.5273 -8.58,0 -14.14,5.5586 -14.14,14.7695" />
      <path
         id="path216"
         style="fill:#9d3e1d;fill-opacity:1;fill-rule:nonzero;stroke:none"
         d="m 1493.39,40.1914 c 0,15.8906 10.49,31.6094 10.49,42.4102 0,3.6484 -1.59,5.25 -4.29,5.25 -6.99,0 -20.81,-12.0703 -33.52,-60.8399 h -18.75 l 11.13,41.9297 c 1.42,5.2383 2.21,9.0469 2.21,12.0703 0,3.8203 -1.27,6.8399 -4.75,6.8399 -7.32,0 -20.98,-12.0703 -33.68,-60.8399 h -19.07 l 13.67,51.4571 c 2.38,9.0507 1.9,11.5898 -0.95,11.5898 -3.66,0 -7.78,-6.8203 -12.39,-16.668 l -7.47,3.1797 c 6.83,15.8789 14.77,25.1017 25.42,25.1017 6.82,0 11.59,-4.9337 11.59,-14.7814 0,-4.6093 -0.95,-10.3203 -3.33,-17.6289 l 1.11,-0.4804 c 10.48,22.3984 22.24,33.0387 33.04,33.0387 8.73,0 13.34,-5.8786 13.34,-15.4098 0,-4.4414 -1.27,-9.8399 -3.65,-17.1485 l 1.11,-0.4804 c 10.48,22.3984 22.23,33.0387 33.51,33.0387 8.74,0 14.3,-6.988 14.3,-16.5192 0,-13.5 -11.76,-33.832 -11.76,-43.5195 0,-2.3829 0.96,-3.4922 2.71,-3.4922 3.33,0 6.67,5.0703 10.96,16.0429 l 7.47,-2.3828 c -6.36,-19.2187 -15.26,-26.5273 -24.31,-26.5273 -8.57,0 -14.14,5.5586 -14.14,14.7695" />
      <path
         id="path218"
         style="fill:#9d3e1d;fill-opacity:1;fill-rule:nonzero;stroke:none"
         d="m 1591.08,40.3516 c 0,3.9687 0.95,10.0078 3.49,18.1093 l -1.1,0.4688 c -10.49,-23.0313 -21.61,-33.5078 -33.05,-33.5078 -8.73,0 -14.45,6.8281 -14.45,16.6679 0,13.3516 11.28,34.4805 11.28,43.5313 0,2.2305 -0.96,3.3398 -2.39,3.3398 -3.34,0 -6.03,-3.5 -11.75,-15.4101 l -7.47,3.168 c 6.52,15.7304 14.94,25.1012 25.89,25.1012 8.42,0 13.35,-5.238 13.35,-14.4489 0,-14.7813 -10.49,-31.6094 -10.49,-41.7813 0,-4.4414 1.75,-6.1914 4.45,-6.1914 7.15,0 20.33,11.75 33.36,61.3126 h 19.06 l -13.03,-49.2422 c -1.27,-4.2891 -1.75,-6.9883 -1.75,-9.0469 0,-2.711 1.44,-4.1328 3.66,-4.1328 3.66,0 6.99,5.4023 10.64,16.0429 l 7.63,-2.3828 c -6.19,-19.3906 -14.78,-26.5273 -23.83,-26.5273 -8.26,0 -13.5,4.5976 -13.5,14.9297" />
      <path
         id="path220"
         style="fill:#9d3e1d;fill-opacity:1;fill-rule:nonzero;stroke:none"
         d="m 1704.34,38.2891 c 3.33,0 6.67,5.0703 10.95,16.0429 l 7.46,-2.3828 c -6.34,-19.2187 -15.24,-26.5273 -24.29,-26.5273 -8.59,0 -14.14,5.5586 -14.14,14.7695 0,15.8906 10.48,31.6094 10.48,42.4102 0,3.6484 -1.59,5.25 -4.28,5.25 -7.32,0 -20.98,-12.0703 -33.68,-60.8399 h -19.07 l 13.67,51.4571 c 2.38,9.0507 1.9,11.5898 -0.95,11.5898 -3.66,0 -7.78,-6.8203 -12.39,-16.668 l -7.47,3.1797 c 6.83,15.8789 14.77,25.1017 25.41,25.1017 6.83,0 11.6,-4.9337 11.6,-14.7814 0,-4.6093 -0.95,-10.3203 -3.33,-17.6289 l 1.11,-0.4804 c 10.48,22.3984 22.24,33.0387 33.52,33.0387 8.88,0 14.45,-6.988 14.45,-16.5192 0,-13.5 -11.76,-33.832 -11.76,-43.5195 0,-2.3829 0.96,-3.4922 2.71,-3.4922" />
      <path
         id="path222"
         style="fill:#9d3e1d;fill-opacity:1;fill-rule:nonzero;stroke:none"
         d="m 1762.77,112.941 c -5.55,0 -9.84,3.809 -9.84,10.168 0,6.512 4.92,13.973 13.34,13.973 6.03,0 10.17,-3.801 10.17,-10.16 0,-6.363 -5.24,-13.981 -13.67,-13.981 z m -7.61,-70.8512 c 0,-2.6914 1.11,-3.8007 3.17,-3.8007 3.02,0 6.51,4.2812 11.28,16.0429 l 7.46,-2.3828 c -6.19,-18.75 -15.09,-26.5273 -25.25,-26.5273 -8.27,0 -14.3,5.3984 -14.3,14.9297 0,15.0898 13.18,36.3672 13.18,46.2304 0,2.5391 -0.94,3.4766 -2.38,3.4766 -4.44,0 -8.42,-6.8203 -12.86,-16.668 l -7.63,3.1797 c 6.83,15.8789 15.26,25.2497 26.06,25.2497 8.25,0 14.13,-5.8786 14.13,-16.0387 0,-12.3907 -12.86,-34.4727 -12.86,-43.6915" />
      <path
         id="path224"
         style="fill:#9d3e1d;fill-opacity:1;fill-rule:nonzero;stroke:none"
         d="m 1818.85,88.7891 -9.53,-34.7774 c -1.12,-3.9726 -1.92,-7.6328 -1.92,-9.5312 0,-4.2891 2.23,-5.7188 5.57,-5.7188 5.71,0 10.48,6.9883 14.93,17.1485 l 7.63,-2.5391 c -7.8,-22.5508 -20.02,-27.9492 -28.6,-27.9492 -10.48,0 -17.95,5.2383 -17.95,16.039 0,4.6094 1.75,11.2774 2.86,15.7188 l 8.58,31.6094 h -13.98 l 2.54,9.6992 h 13.98 l 5.24,19.0507 18.9,2.07 -5.71,-21.1207 h 22.56 l -2.55,-9.6992 h -22.55" />
      <path
         id="path226"
         style="fill:#9d3e1d;fill-opacity:1;fill-rule:nonzero;stroke:none"
         d="m 1881.44,88 c 0,-14.6094 -9.22,-28.8984 -9.22,-38.1211 0,-3.9687 1.74,-5.5586 5.24,-5.5586 8.42,0 19.7,9.5313 31.77,56.3907 h 17.79 L 1912.4,39.3984 C 1905.58,10.1719 1889.53,0 1869.68,0 c -11.13,0 -24.47,3.01953 -24.47,14.7813 0,5.0781 3.81,11.4375 10.96,11.4375 6.36,0 9.53,-4.4571 9.22,-9.6993 -0.17,-2.539 -1.59,-5.3984 -3.18,-6.82809 1.91,-0.63282 4.29,-1.10938 7.31,-1.10938 12.38,0 20.8,10.00777 26.2,32.08987 l 3.19,12.5469 -0.96,0.4804 c -9.21,-16.8476 -19.06,-23.039 -28.27,-23.039 -10.49,0 -15.72,7.3007 -15.72,16.5195 0,12.2305 10.16,29.3906 10.16,38.4414 0,2.0586 -0.96,3.3398 -2.38,3.3398 -3.98,0 -7.78,-6.5117 -12.08,-15.5703 l -7.46,3.1797 c 6.99,15.8789 15.72,25.2497 26.21,25.2497 8.09,0 13.03,-5.3981 13.03,-13.82" />
      <path
         id="path228"
         style="fill:#9d3e1d;fill-opacity:1;fill-rule:nonzero;stroke:none"
         d="m 2011.36,80.0586 c 20.33,0 27.48,12.7109 27.48,24.9414 0,9.211 -5.57,14.77 -21.29,14.77 h -6.83 l -9.85,-39.7114 z m -20.81,-41.1367 h 17.31 l -2.7,-11.9102 h -53.37 l 2.7,11.9102 h 16.04 l 20.02,80.6871 h -16.2 l 3.01,11.922 h 44 c 28.76,0 39.71,-11.761 39.71,-26.691 0,-15.8791 -10.95,-36.0587 -50.35,-36.0587 h -12.71 l -7.46,-29.8594" />
      <path
         id="path230"
         style="fill:#9d3e1d;fill-opacity:1;fill-rule:nonzero;stroke:none"
         d="m 2085.85,78.4688 c 2.38,9.0507 1.9,11.5898 -0.95,11.5898 -3.66,0 -7.78,-6.8203 -12.39,-16.668 l -7.47,3.1797 c 6.84,15.8789 14.77,25.1017 25.42,25.1017 6.83,0 11.59,-4.9337 11.59,-14.7814 0,-4.6093 -0.95,-10.1718 -3.17,-17.1601 l 1.27,-0.4688 c 9.21,20.9688 16.83,32.5583 27.96,32.5583 6.67,0 11.59,-4.6091 11.59,-12.07 0,-7.9414 -5.08,-14.3008 -11.44,-14.3008 -5.55,0 -9.84,3.6602 -9.53,10.3321 -4.61,-1.9102 -16.04,-15.4024 -27.48,-58.7696 h -19.06 l 13.66,51.4571" />
      <path
         id="path232"
         style="fill:#9d3e1d;fill-opacity:1;fill-rule:nonzero;stroke:none"
         d="m 2185.13,93.082 c -14.78,0 -23.2,-28.9101 -23.2,-44.3203 0,-10.1601 4.29,-14.4531 11.13,-14.4531 14.76,0 23.18,28.9219 23.18,44.3203 0,10.1602 -4.29,14.4531 -11.11,14.4531 z m 30.02,-21.9101 c 0,-24.793 -19.86,-45.75 -41.94,-45.75 -18.27,0 -30.18,12.8672 -30.18,30.8164 0,24.7734 19.86,45.5817 41.94,45.5817 18.26,0 30.18,-12.6989 30.18,-30.6481" />
      <path
         id="path234"
         style="fill:#9d3e1d;fill-opacity:1;fill-rule:nonzero;stroke:none"
         d="m 2263.91,112.941 c -5.56,0 -9.85,3.809 -9.85,10.168 0,6.512 5.09,13.973 13.34,13.973 6.04,0 10.17,-3.801 10.17,-10.16 0,-6.363 -5.24,-13.981 -13.66,-13.981 z m 3.02,-39.7105 -10.01,-37.961 C 2250.25,10.0117 2237.86,0 2223.24,0 c -11.11,0 -15.88,5.25 -15.88,11.2813 0,5.8789 4.29,11.2773 10.48,11.2773 5.4,0 8.26,-3.9688 8.26,-8.0977 0,-3.3398 -1.27,-6.03902 -2.54,-7.62887 6.83,-0.16015 9.54,3.97657 15.41,26.68747 l 10.48,40.1914 c 0.96,3.8008 2.39,9.3711 2.39,12.6993 0,2.8593 -1.27,3.6484 -2.7,3.6484 -3.82,0 -7.95,-6.8203 -12.55,-16.668 l -7.47,3.1797 c 6.84,15.8789 15.1,25.2497 26.21,25.2497 8.11,0 13.82,-6.1911 13.82,-15.0895 0,-3.6485 -0.79,-8.1016 -2.22,-13.5" />
      <path
         id="path236"
         style="fill:#9d3e1d;fill-opacity:1;fill-rule:nonzero;stroke:none"
         d="m 2302.67,64.332 c 22.08,2.3789 30.17,10.9688 30.17,20.8086 0,4.4492 -2.54,7.9414 -7.3,7.9414 -11.13,0 -19.54,-15.0937 -22.87,-28.75 z m -1.44,-7.4609 c -0.16,-1.2695 -0.16,-2.5391 -0.16,-3.6523 0,-13.1875 6.83,-17.3204 14.78,-17.3204 7.78,0 15.57,5.25 22.24,14.6133 l 6.67,-4.7617 c -8.1,-11.5898 -17.95,-20.3281 -34.79,-20.3281 -16.36,0 -27.8,11.4297 -27.8,28.9101 0,24.4571 21.13,47.488 46.06,47.488 13.66,0 21.29,-6.82 21.29,-16.5192 0,-14.2891 -14.93,-26.5313 -48.29,-28.4297" />
      <path
         id="path238"
         style="fill:#9d3e1d;fill-opacity:1;fill-rule:nonzero;stroke:none"
         d="m 2426.08,83.082 c 0,-6.832 -4.29,-13.6601 -11.12,-13.6601 -5.72,0 -9.37,3.8086 -9.37,8.5664 0,4.4609 2.7,8.1133 6.51,10.8008 -1.27,2.2304 -3.97,3.9804 -8.73,3.9804 -15.89,0 -25.26,-24.3086 -25.26,-38.1289 0,-13.6601 7.31,-17.9492 14.45,-17.9492 7.31,0 14.3,5.25 20.65,15.0899 l 6.83,-4.6016 c -6.83,-11.9102 -16.2,-21.7578 -31.77,-21.7578 -17.47,0 -29.23,11.9101 -29.23,29.2187 0,24.7891 21.29,47.1794 44.01,47.1794 13.34,0 23.03,-7.4606 23.03,-18.738" />
      <path
         id="path240"
         style="fill:#9d3e1d;fill-opacity:1;fill-rule:nonzero;stroke:none"
         d="m 2470.4,88.7891 -9.53,-34.7774 c -1.11,-3.9726 -1.91,-7.6328 -1.91,-9.5312 0,-4.2891 2.22,-5.7188 5.56,-5.7188 5.71,0 10.48,6.9883 14.93,17.1485 l 7.62,-2.5391 c -7.78,-22.5508 -20.01,-27.9492 -28.58,-27.9492 -10.49,0 -17.95,5.2383 -17.95,16.039 0,4.6094 1.75,11.2774 2.85,15.7188 l 8.58,31.6094 h -13.98 l 2.55,9.6992 h 13.97 l 5.25,19.0507 18.89,2.07 -5.71,-21.1207 h 22.56 l -2.55,-9.6992 h -22.55" />
      <path
         id="path242"
         style="fill:#201916;fill-opacity:1;fill-rule:nonzero;stroke:none"
         d="m 118.746,705.559 h 118.395 l 90.871,-165.11 90.23,165.11 H 537.273 V 257.59 H 423.363 V 509.73 L 328.012,343.34 h -1.918 L 230.738,508.449 V 257.59 H 118.746 v 447.969" />
      <path
         id="path244"
         style="fill:#201916;fill-opacity:1;fill-rule:nonzero;stroke:none"
         d="M 829.125,430.379 787.527,561.57 745.934,430.379 Z M 730.574,708.121 H 847.047 L 1005.11,257.59 H 884.164 l -26.238,80.64 H 717.133 L 691.539,257.59 H 573.145 l 157.429,450.531" />
      <path
         id="path246"
         style="fill:#201916;fill-opacity:1;fill-rule:nonzero;stroke:none"
         d="m 1040.34,705.559 h 108.15 L 1297.6,480.301 v 225.258 h 113.27 V 257.59 H 1308.48 L 1153.61,492.461 V 257.59 h -113.27 v 447.969" />
      <path
         id="path248"
         style="fill:#201916;fill-opacity:1;fill-rule:nonzero;stroke:none"
         d="m 1478.73,705.559 h 115.2 V 257.59 h -115.2 v 447.969" />
      <path
         id="path250"
         style="fill:#201916;fill-opacity:1;fill-rule:nonzero;stroke:none"
         d="m 1663.05,705.559 h 115.18 V 361.262 h 175.99 V 257.59 h -291.17 v 447.969" />
      <path
         id="path252"
         style="fill:#201916;fill-opacity:1;fill-rule:nonzero;stroke:none"
         d="m 2224.31,430.379 -41.6,131.191 -41.6,-131.191 z m -98.56,277.742 h 116.48 L 2400.29,257.59 h -120.95 l -26.23,80.64 h -140.8 l -25.6,-80.64 h -118.39 l 157.43,450.531" />
      <path
         id="path254"
         style="fill:#ffffff;fill-opacity:1;fill-rule:nonzero;stroke:none"
         d="m 2187.83,2125.69 c -8.8,0 -17.41,2.74 -24.91,7.92 -130.24,88.66 -288.48,137.54 -445.4,137.54 -133.3,0 -235.85,-39.77 -326.34,-74.85 l -10.02,24.53 9.58,-24.7 c -71.95,-27.92 -134.08,-52.03 -202.54,-54.8 -0.66,-0.02 -1.24,-0.03 -1.8,-0.03 -20.59,-0.01 -38.17,14.09 -42.76,34.27 -4.61,20.23 4.88,39.86 23.6,48.85 38.19,18.51 76.46,42.04 113.47,64.8 110.89,68.38 236.49,145.83 418.9,145.83 214.47,0 405,-86.96 522.72,-238.59 10.37,-13.47 12.2,-31.03 4.86,-45.94 -7.42,-15.08 -22.88,-24.83 -39.36,-24.83" />
      <path
         id="path256"
         style="fill:#ffffff;fill-opacity:1;fill-rule:nonzero;stroke:none"
         d="m 2223.98,1939.18 c -8.28,0 -16.47,2.43 -23.71,7.03 -111.51,70.86 -241.09,105.3 -396.12,105.3 -106.23,0 -225.37,-17 -354.1,-50.55 -57.2,-14.9 -117.07,-22.46 -177.94,-22.46 -135.83,0 -394.755,40.27 -602.762,310.03 -13.395,17.86 -11.481,42.64 4.242,57.91 3.719,3.73 6.976,7.47 9.676,11.14 8.726,11.57 21.515,18.05 35.297,18.05 10.523,0 20.8,-3.9 28.937,-10.98 12.102,-10.58 23.215,-21.78 33.113,-33.34 l 81.696,-79 0.742,-0.6 c 0.965,-0.76 1.859,-1.59 2.691,-2.47 112.031,-96.53 210.588,-141.49 309.998,-141.49 79.1,0 150.95,27.95 227.02,57.54 91.98,35.77 187.08,72.76 314.76,72.76 304.41,0 489.05,-172.52 538.39,-225.4 12.04,-12.78 15.3,-30.68 8.42,-46.62 -7.04,-16.31 -22.88,-26.85 -40.35,-26.85" />
      <path
         id="path258"
         style="fill:#9d3e1d;fill-opacity:1;fill-rule:nonzero;stroke:none"
         d="m 1306.47,1011.5 c -13.33,0 -25.8,5.96 -34.2,16.35 -8.29,10.23 -11.48,23.4 -8.76,36.16 15.61,71.08 79.58,122.57 152.13,122.57 h 473.91 c 110.05,0 213.84,36.4 300.15,105.28 7.94,6.33 17.3,9.67 27.1,9.67 15.93,0 31.17,-9.26 38.82,-23.59 7.63,-14.3 6.72,-30.98 -2.41,-44.61 -93.37,-138.92 -248.62,-221.83 -415.32,-221.83 h -531.42" />
      <path
         id="path260"
         style="fill:#6c3317;fill-opacity:1;fill-rule:nonzero;stroke:none"
         d="m 1360.02,1748.5 c 12.75,1.2 22.22,-11.88 17.23,-23.77 l -88.86,-211.98 c -2.58,-6.54 -8.78,-10.67 -15.84,-10.67 h -106.94 c -12.23,0 -22.39,9.99 -22.39,22.38 0,12.23 10.16,22.39 22.39,22.39 h 63.72 c 7.06,0 13.25,4.13 16.01,10.5 l 74.39,177.89 c 2.41,5.68 7.75,9.81 13.95,10.5 8.78,1.04 17.57,2.07 26.34,2.76" />
      <path
         id="path262"
         style="fill:#9d3e1d;fill-opacity:1;fill-rule:nonzero;stroke:none"
         d="m 1832.72,1475.58 c -26.76,0 -48.54,21.77 -48.54,48.54 0,26.76 21.78,48.54 48.54,48.54 h 128.83 v 35.19 c -84.37,12.97 -147.4,85.94 -147.4,171.64 0,37.15 11.61,72.52 33.64,102.62 l -23.63,23.63 c -22.23,-28.7 -36.3,-62.56 -40.93,-98.63 -2.82,-21.5 -21.35,-37.68 -43.1,-37.68 -4.38,0 -8.73,0.65 -12.94,1.94 -90.91,27.22 -185.33,41.04 -280.55,41.04 -68.84,0 -138.7,-7.51 -207.62,-22.31 -2.88,-0.66 -6.17,-1.04 -9.44,-1.04 -12.77,0 -24.85,5.64 -33.15,15.46 -8.38,9.92 -11.94,23 -9.76,35.88 0.86,4.71 1.57,9.26 2.13,13.68 h -33.27 c -13.23,-99 -99.25,-175.13 -199.839,-175.13 h -46.839 c -27.754,0 -51.633,-19.75 -56.789,-46.97 -3.95,-20.6 -21.989,-35.52 -42.915,-35.52 h -7.921 c -24.102,0 -43.715,19.61 -43.715,43.72 v 2.07 c 0,71.77 58.39,130.16 130.16,130.16 h 24.824 v 33.11 h -24.824 c -11.789,0 -23.805,-1.39 -35.707,-4.14 -3.414,-0.79 -6.899,-1.19 -10.34,-1.19 -7.742,0 -15.297,2.04 -21.852,5.92 -135.089,77.11 -255.375,176.01 -357.168,293.75 -31.593,36.64 -76.937,57.64 -124.425,57.64 0,0 -138.715,0.7 -138.871,0.7 -19.563,0.44 -36.227,13.34 -41.461,32.11 l -4.868,17.9 c -5.347,19.14 3.051,39.49 20.458,49.31 l 37.429,21.8 c 0.067,0.05 0.125,0.09 0.188,0.14 l 49.183,49.02 1.602,1.85 c 60.344,70.93 147.726,114.8 239.586,120.17 0.512,0.03 1.031,0.05 1.547,0.05 h 21.113 c 10.953,29.79 39.785,50.15 72.074,50.15 7.965,0 15.969,-1.22 23.789,-3.63 23.406,-7.62 42.098,-26.47 49.192,-49.32 6.343,-20.46 4.336,-41.82 -5.645,-60.14 -8.883,-16.31 -23.558,-28.95 -40.863,-35.37 v -55.99 C 810.219,2034.26 1042.8,1962.39 1205.1,1948.3 c 22.17,-1.96 44.66,-2.96 66.89,-2.96 63.64,0 126.35,7.93 186.4,23.56 124.68,32.43 239.95,48.87 342.64,48.87 110.48,0 210.63,-19.02 297.65,-56.54 87.22,-37.6 164.14,-94.98 228.65,-170.59 6.85,-7.82 10.61,-18 10.61,-28.71 v -8.1 c 0,-153.42 -124.75,-278.25 -278.09,-278.25 h -227.13" />
      <path
         id="path264"
         style="fill:#6d3318;fill-opacity:1;fill-rule:nonzero;stroke:none"
         d="m 1165.61,1475.58 c -26.95,0 -48.89,21.93 -48.89,48.88 0,26.96 21.94,48.88 48.89,48.88 h 57.7 l 71.97,172.12 c 6.25,14.72 19.82,24.87 35.47,26.61 8.95,1.06 18.02,2.13 27.2,2.84 0.97,0.1 2.35,0.16 3.7,0.16 14.51,0 28.01,-7.28 36.11,-19.47 8.13,-12.24 9.59,-27.62 3.91,-41.14 l -88.76,-211.75 c -6.66,-16.49 -22.47,-27.13 -40.36,-27.13 h -106.94" />
      <path
         id="path266"
         style="fill:#6d3318;fill-opacity:1;fill-rule:nonzero;stroke:none"
         d="m 1188.8,1854.08 c -0.69,-6.11 3.03,-29.38 1.95,-35.27 -2.07,-12.23 18.86,-31.46 30.92,-28.71 69.74,14.98 152.82,26.5 224.97,26.5 98.51,0 207.37,-14.06 300.53,-41.95 10.16,-3.1 40.57,31.44 41.95,41.95 0.91,7.09 -28.36,14.91 -28.36,14.91 -103.12,30.3 -209.95,45.9 -318.85,45.9 -76.67,0 -178.82,-8.25 -253.11,-23.33" />
      <path
         id="path268"
         style="fill:#6d3318;fill-opacity:1;fill-rule:nonzero;stroke:none"
         d="m 455.488,2101.43 c 100.047,-115.72 270.114,-232.19 362.11,-284.71 2.632,-1.55 37.543,-1.92 40.656,-1.2 9.328,2.16 19.016,3.35 28.949,3.35 h 23.688 c 6.699,0 11.961,-5.38 11.961,-11.96 v -35.89 c 0,-6.58 -5.262,-11.96 -11.961,-11.96 h -23.688 c -39.719,0 -122.558,-27.25 -122.558,-128.45 v -3.66 c 0,-16.76 13.718,-30.49 30.484,-30.49 h 14.019 c 14.637,0 27.129,10.37 29.875,24.7 13.11,69.19 67.223,67.38 108.379,67.38 h 46.836 c 87.382,0 150.352,75.12 163.392,158.97 -271.579,2.21 -597.634,306.85 -792.36,334.27 44.996,-6.57 59.617,-44.87 90.218,-80.35" />
      <path
         id="path270"
         style="fill:#201916;fill-opacity:1;fill-rule:nonzero;stroke:none"
         d="m 1377.25,1724.73 c 4.99,11.89 -4.48,24.97 -17.23,23.77 -8.77,-0.69 -17.56,-1.72 -26.34,-2.76 -6.2,-0.69 -11.54,-4.82 -13.95,-10.5 l -74.39,-177.89 c -2.76,-6.37 -8.95,-10.5 -16.01,-10.5 h -63.72 c -12.23,0 -22.39,-10.16 -22.39,-22.39 0,-12.39 10.16,-22.38 22.39,-22.38 h 106.94 c 7.06,0 13.26,4.13 15.84,10.67 z m 800.74,430.68 c 16.18,-11.19 35.47,9.13 23.42,24.8 -108.83,140.17 -289.3,228.34 -501.8,228.34 -174.96,0 -297.23,-75.42 -405.02,-141.89 -38.92,-23.94 -77.15,-47.36 -115.89,-66.13 -16.88,-8.09 -10.16,-33.4 8.43,-32.72 64.06,2.58 124.85,26.17 194.08,53.04 92.81,35.99 197.85,76.8 336.31,76.8 182.19,0 341.82,-61.47 460.47,-142.24 z m 53.21,-907.33 c 10.85,16.18 -9.65,35.3 -24.97,23.07 -86.96,-69.4 -197,-111.07 -316.68,-111.07 h -473.91 c -61.64,0 -113.47,-43.56 -126.22,-101.6 -2.24,-10.5 6.2,-20.49 17.05,-20.49 h 531.42 c 163.76,0 308.24,83.52 393.31,210.09 z m -16.71,720.49 c 17.05,-10.84 36,11.2 22.04,26 -96.08,102.98 -279.48,216.98 -519.01,216.98 -122.27,0 -215.25,-35.99 -305.15,-70.95 -163.76,-63.71 -318.57,-123.81 -565.85,90.24 v 0.17 l -1.723,1.38 -83.52,80.76 c -9.64,11.37 -20.148,21.87 -31.172,31.51 -7.917,6.89 -19.109,5.69 -25.48,-2.75 -3.789,-5.17 -8.098,-9.99 -12.574,-14.47 -6.196,-6.02 -6.883,-15.84 -1.719,-22.73 223.863,-290.33 532.968,-335.45 753.038,-278.1 322.54,84.03 577.05,65.26 771.12,-58.04 z m 96.96,-214.73 v 8.09 c 0,4.13 -1.38,8.27 -4.14,11.37 -182.71,214.22 -458.23,269.84 -842.24,169.96 -79.39,-20.67 -168.93,-29.62 -262.27,-21.36 -206.292,17.91 -431.019,119.17 -603.39,361.29 -2.242,2.92 -3.273,6.54 -3.273,10.15 v 37.55 28.07 c 0,8.09 5.679,14.63 13.429,16.87 25.832,7.23 43.399,34.62 34.274,64.06 -4.656,14.99 -16.883,27.04 -31.692,31.86 -29.613,9.13 -57.168,-8.27 -64.398,-34.1 -2.242,-7.92 -8.613,-13.6 -16.703,-13.6 h -28.074 c -85.41,-5 -165.141,-45.29 -221.11,-111.07 l -2.234,-2.59 -50.801,-50.62 c -1.207,-1.04 -2.414,-1.9 -3.617,-2.76 l -38.746,-22.56 c -6.715,-3.79 -9.985,-11.88 -7.918,-19.28 l 4.82,-17.74 c 2.067,-7.41 8.781,-12.57 16.531,-12.74 L 338.18,2184 c 55.101,0 107.797,-24.28 144.476,-66.82 100.047,-115.72 218.18,-212.67 350.602,-288.26 3.789,-2.24 8.265,-2.76 12.742,-1.73 13.434,3.1 27.383,4.83 41.676,4.83 h 34.097 c 9.645,0 17.215,-7.75 17.215,-17.22 v -51.66 c 0,-9.48 -7.57,-17.23 -17.215,-17.23 h -34.097 c -57.172,0 -103.668,-46.49 -103.668,-103.66 v -2.07 c 0,-9.47 7.75,-17.22 17.222,-17.22 h 7.918 c 8.27,0 15.329,5.86 16.875,13.95 7.411,39.09 41.676,68.54 82.832,68.54 h 46.836 c 91.439,0 166.699,70.43 174.449,159.98 0.69,8.6 8.26,15.14 17.04,15.14 h 51.66 c 10.16,0 18.08,-8.6 17.4,-18.59 -0.69,-8.78 -1.9,-17.57 -3.45,-26 -2.06,-12.23 8.61,-22.73 20.67,-19.98 69.74,14.98 141.03,22.91 213.18,22.91 98.51,0 195.11,-14.3 288.27,-42.2 10.16,-3.1 20.67,3.27 22.04,13.78 5.69,44.26 23.94,85.76 53.22,120.03 6.54,7.75 18.25,8.44 25.47,1.2 l 36.68,-36.68 c 3.11,-3.1 5.17,-7.4 5.17,-12.22 0,-3.62 -1.2,-6.89 -2.92,-9.64 -1.03,-1.21 -1.89,-2.25 -2.93,-3.45 -19.98,-25.84 -31,-57.17 -31,-90.24 0,-74.9 56.49,-136.9 128.98,-146.02 1.03,-0.17 2.07,-0.35 3.1,-0.35 8.61,-1.03 15.33,-8.26 15.33,-17.22 v -28.07 -24.45 c 0,-9.64 -7.75,-17.22 -17.22,-17.22 h -138.11 c -12.22,0 -22.04,-9.99 -22.04,-22.04 0,-12.23 9.82,-22.04 22.04,-22.04 h 208.88 18.25 c 138.98,0 251.6,112.79 251.6,251.76 z m 86.1,3.96 v -246.25 c 0,-309.1 -250.56,-559.659 -559.66,-559.659 h -620.28 c -9.47,0 -17.21,7.75 -17.21,17.218 v 61.821 c 0,119 96.43,215.25 215.24,215.25 h 473.91 c 143.96,0 271.05,72.33 347.16,182.54 10.33,14.98 -6.38,33.23 -22.38,24.97 -43.92,-22.73 -93.34,-35.82 -145.69,-37.2 v -0.51 h -231.27 c -57.68,0 -108.48,43.04 -112.45,100.39 -3.27,47.36 23.94,88.68 63.89,106.42 9.65,4.3 12.57,16.53 6.54,25.14 -8.26,12.23 -15.5,25.14 -21.35,38.92 -1.89,4.3 -5.51,7.75 -9.99,9.47 -86.62,32.03 -177.19,50.46 -269.84,55.11 -7.4,0.34 -14.12,-3.97 -16.88,-10.68 l -135.86,-324.77 h -175.82 c -64.4,0 -116.06,56.65 -107.46,122.77 7.06,54.59 56.14,94.2 111.25,94.2 h 2.75 c 6.89,0 13.09,4.14 15.84,10.5 l 20.33,48.74 c 5.68,13.43 -6.89,27.38 -20.84,23.24 -12.57,-3.79 -25.32,-7.74 -37.89,-12.05 -2.41,-0.86 -4.82,-2.41 -6.71,-4.3 -47.36,-49.08 -113.83,-79.73 -187.189,-79.73 h -29.789 c -8.265,0 -15.328,-5.86 -16.875,-13.96 -7.406,-39.08 -41.672,-68.53 -82.656,-68.53 h -44.086 c -46.664,0 -84.379,37.71 -84.379,84.21 v 21.18 c 0,45.12 15.844,86.62 42.364,119.34 6.543,7.92 4.304,19.62 -4.309,25.14 -118.988,75.08 -225.758,167.04 -318.398,274.15 -20.493,23.58 -49.422,37.01 -79.383,37.01 l -150.508,0.18 c -39.086,0 -73.703,26.34 -83.863,64.06 l -25.8324,94.19 c -2.0625,7.58 1.207,15.5 8.0976,19.46 l 86.2698,50.11 c 1.383,0.69 2.414,1.55 3.617,2.59 l 41.5,41.67 c 67.852,79.04 162.734,127.95 265.367,137.76 4.305,0.52 8.266,2.58 11.02,5.86 24.968,28.58 61.472,46.49 102.289,46.49 63.199,0 116.578,-43.39 131.734,-101.94 1.207,-4.14 3.617,-7.75 7.402,-9.99 33.239,-21.18 63.715,-47.19 90.063,-77.84 l 76.973,-73.87 c 128.981,-91.1 215.941,-37.54 346.991,43.4 111.76,68.88 250.9,154.63 450.31,154.63 385.91,0 689.33,-273.11 697.59,-624.41 0.17,-2.23 0.35,-4.64 0.35,-6.88 h -0.18 c 0,-2.59 0.18,-5.34 0.18,-7.93 v -68.36 -29.27" />
      <path
         id="path272"
         style="fill:#201916;fill-opacity:1;fill-rule:nonzero;stroke:none"
         d="m 373.969,2325.64 c 19.027,0 34.551,-15.53 34.551,-34.55 0,-19.03 -15.524,-34.34 -34.551,-34.34 -19.024,0 -34.328,15.31 -34.328,34.34 0,19.02 15.304,34.55 34.328,34.55" />
    </g>
    <path
       style="color:#000000;display:inline;overflow:visible;visibility:visible;fill:#f05c56;fill-opacity:1;fill-rule:nonzero;stroke:none;stroke-width:1.56508;marker:none;enable-background:accumulate"
       d="m 5.038289,10.43526 c -2.2329568,0 -4.04312604,1.810169 -4.04312604,4.043126 0,1.331055 0.64181644,2.511622 1.63436894,3.248357 0.2054162,-0.267778 0.2948858,-0.453623 0.3219828,-0.554299 0.031544,-0.117198 0.024426,-0.137182 -0.00405,-0.232317 -0.02523,-0.08422 -0.1364552,-0.209565 -0.3138312,-0.452406 -0.0025,-0.0034 -0.00566,-0.0088 -0.00816,-0.01223 -0.00125,-0.0015 -0.00286,-0.0026 -0.00405,-0.0041 C 2.483468,16.304281 2.3680967,16.118925 2.2668305,15.925292 2.0403089,15.492148 1.9081664,15.001074 1.9081664,14.478407 c 0,-0.919471 0.3998769,-1.742345 1.0311612,-2.315015 0.5556211,-0.504035 1.2897306,-0.815147 2.0990013,-0.815147 0.8103469,0 1.5472001,0.309916 2.1030772,0.815147 0.074117,0.06736 0.1445747,0.13782 0.2119385,0.211937 0.00191,0.0022 0.00215,0.006 0.00405,0.0082 0.501734,0.555126 0.81107,1.28773 0.81107,2.094925 0,0.756325 -0.2667174,1.451957 -0.7132521,1.993033 -0.00101,0.0013 -0.0031,0.0027 -0.00405,0.0041 -0.0031,0.0038 -0.00507,0.0085 -0.00815,0.01223 -0.1773766,0.242842 -0.2885979,0.368188 -0.3138319,0.452406 -0.028503,0.09513 -0.035616,0.115118 -0.00405,0.232316 0.027097,0.100676 0.1165666,0.286522 0.3219822,0.5543 0.9925609,-0.736736 1.6343773,-1.917304 1.6343773,-3.248359 0,-2.232957 -1.8101692,-4.043126 -4.0431258,-4.043126 z m 0,1.695504 c -0.4602338,7.75e-4 -0.9123625,0.137343 -1.2960829,0.39127 -1.0759094,0.711987 -1.3741929,2.172571 -0.6643438,3.248359 0.00107,0.0016 0.00304,0.0025 0.00405,0.0041 0.2209181,0.333745 0.4976126,0.575463 0.6072844,0.941494 0.099287,0.331369 0.1054442,0.747602 -0.3871938,1.41428 0.2811438,0.13391 0.5802082,0.235271 0.8925847,0.301603 0.4682435,-0.757382 0.5306602,-1.443503 0.3708918,-1.97673 -0.1951785,-0.651409 -0.6637052,-1.092232 -0.725481,-1.186039 h 0.00405 c -0.4411925,-0.665199 -0.2624286,-1.54832 0.4035051,-1.989003 0.2341731,-0.154964 0.5098528,-0.235605 0.7906926,-0.236392 0.00137,0 0.00274,-5e-6 0.00405,0 0.28046,7.75e-4 0.5527618,0.08146 0.7866165,0.236392 0.6650305,0.440603 0.8481763,1.323924 0.407573,1.988957 -0.061776,0.09381 -0.5303024,0.53463 -0.725481,1.186038 -0.1597683,0.533227 -0.097352,1.219348 0.3708924,1.97673 0.312376,-0.06633 0.611441,-0.167694 0.8925848,-0.301604 C 6.2818477,17.463542 6.2880051,17.047308 6.3872914,16.71594 6.4969626,16.349909 6.7736577,16.108191 6.9945755,15.774446 7.7076887,14.698094 7.4106591,13.235126 6.3343075,12.522012 5.9510217,12.268075 5.5020128,12.131541 5.0423001,12.130742 c -0.00131,4e-6 -0.00268,0 -0.00405,0 z m 0,1.695504 c -0.360154,0 -0.6521173,0.291963 -0.6521173,0.652118 0,0.360154 0.2919633,0.652117 0.6521173,0.652117 0.360154,0 0.6521173,-0.291963 0.6521173,-0.652117 0,-0.360155 -0.2919633,-0.652118 -0.6521173,-0.652118 z m 0,4.654486 c -0.00659,0.01352 -0.013653,0.02724 -0.020378,0.04075 0.00683,3.4e-5 0.013539,0 0.020378,0 0.00684,0 0.013551,3.4e-5 0.020378,0 -0.00673,-0.01351 -0.013784,-0.02723 -0.020378,-0.04075 z"
       id="path939"
       inkscape:connector-curvature="0" />
  </g>
</svg>
